<?xml version="1.0" encoding="UTF-8"?>
<!DOCTYPE svg PUBLIC "-//W3C//DTD SVG 1.1//EN" "http://www.w3.org/Graphics/SVG/1.1/DTD/svg11.dtd">
<!-- Creator: CorelDRAW X6 -->
<svg xmlns="http://www.w3.org/2000/svg" xml:space="preserve" width="3in" height="3in" version="1.1" style="shape-rendering:geometricPrecision; text-rendering:geometricPrecision; image-rendering:optimizeQuality; fill-rule:evenodd; clip-rule:evenodd"
viewBox="0 0 3000 3000"
 xmlns:xlink="http://www.w3.org/1999/xlink">
 <defs>
  <style type="text/css">
   <![CDATA[
    .fil0 {fill:#68FFE0}
   ]]>
  </style>
 </defs>
 <g id="Layer_x0020_1">
  <metadata id="CorelCorpID_0Corel-Layer"/>
  <path class="fil0" d="M1793 2792l-100 -154c-257,21 -518,49 -891,-193 -800,-536 -612,-1777 255,-2082 310,-109 646,-93 922,43 558,276 808,893 591,1484 -83,225 -320,526 -517,601l-433 -576c12,-7 1,-4 31,-12 143,-41 302,-39 444,-278 197,-330 55,-823 -450,-910 -162,-28 -583,-23 -755,-10l181 186 484 -4c144,16 283,67 364,204 107,182 61,415 -77,530 -177,148 -310,118 -575,134 17,48 127,183 168,237 61,81 121,163 184,247l365 486c242,-53 566,-379 694,-630 540,-1057 -441,-2297 -1629,-1921 -1020,322 -1334,1740 -327,2434 266,183 692,293 1071,184z"/>
 </g>
</svg>
